<svg xmlns="http://www.w3.org/2000/svg" viewBox="0 0 32 32" width="32" height="32"><path fill="#3776ab" d="M15.874 1.13a1.54 1.54 0 0 0-1.1.46L1.7 14.664a1.55 1.55 0 0 0 0 2.192l5.444 5.444v5.072c0 .58.248 1.136.68 1.528l7.352 6.68a1.55 1.55 0 0 0 1.024.392h.004c.376 0 .74-.14 1.02-.392l7.352-6.68c.432-.392.68-.948.68-1.528v-5.072l2.38-2.38V23.6c0 .58.248 1.136.68 1.528l7.352 6.68a1.55 1.55 0 0 0 1.024.392h.004c.376 0 .74-.14 1.02-.392l7.352-6.68c.432-.392.68-.948.68-1.528v-5.072l5.444-5.444a1.55 1.55 0 0 0 0-2.192L17.974 1.59a1.54 1.54 0 0 0-1.1-.46z"/><path fill="#ffd43b" d="M15.874 7.13a1.54 1.54 0 0 0-1.1.46L1.7 20.664a1.55 1.55 0 0 0 0 2.192l5.444 5.444v5.072c0 .58.248 1.136.68 1.528l7.352 6.68a1.55 1.55 0 0 0 1.024.392h.004c.376 0 .74-.14 1.02-.392l7.352-6.68c.432-.392.68-.948.68-1.528v-5.072l2.38-2.38V29.6c0 .58.248 1.136.68 1.528l7.352 6.68a1.55 1.55 0 0 0 1.024.392h.004c.376 0 .74-.14 1.02-.392l7.352-6.68c.432-.392.68-.948.68-1.528v-5.072l5.444-5.444a1.55 1.55 0 0 0 0-2.192L17.974 7.59a1.54 1.54 0 0 0-1.1-.46z" opacity=".6"/></svg>
